<svg xmlns="http://www.w3.org/2000/svg" width="76.372" height="64" viewBox="0 0 76.372 64"><defs><style>.a{fill:#e0dcd3;}.b{fill:#e74424;}.c{fill:#f67373;}.d{fill:#f7f1e6;}.e{fill:#1b2327;}.f{fill:none;}.g{fill:#474f70;}</style></defs><g transform="translate(-154.295 -160.481)"><path class="a" d="M209.394,164.1a3.614,3.614,0,0,0-3.615-3.615H180.945a3.614,3.614,0,0,0-3.615,3.615v9.727h32.064V164.1Zm-11.652,4.181a1.116,1.116,0,0,1-1.116,1.116h-1.774v1.774a1.117,1.117,0,0,1-1.116,1.117h-.747a1.118,1.118,0,0,1-1.118-1.117v-1.774H190.1a1.116,1.116,0,0,1-1.116-1.116v-.747a1.117,1.117,0,0,1,1.116-1.117h1.773v-1.774a1.117,1.117,0,0,1,1.118-1.116h.747a1.116,1.116,0,0,1,1.116,1.116v1.774h1.774a1.116,1.116,0,0,1,1.116,1.117Z"/><path class="b" d="M196.626,166.413h-1.774V164.64a1.117,1.117,0,0,0-1.116-1.117h-.747a1.118,1.118,0,0,0-1.118,1.117v1.773H190.1a1.117,1.117,0,0,0-1.116,1.117v.747a1.117,1.117,0,0,0,1.116,1.117h1.773v1.773a1.117,1.117,0,0,0,1.118,1.117h.747a1.117,1.117,0,0,0,1.116-1.117v-1.773h1.774a1.116,1.116,0,0,0,1.116-1.117v-.747A1.116,1.116,0,0,0,196.626,166.413Z"/><path class="c" d="M227.052,173.823H157.91a3.614,3.614,0,0,0-3.615,3.615v43.428a3.614,3.614,0,0,0,3.615,3.615h69.142a3.615,3.615,0,0,0,3.615-3.615V177.438A3.614,3.614,0,0,0,227.052,173.823Zm-2.9,8.756a2.832,2.832,0,1,1-2.832,2.831A2.831,2.831,0,0,1,224.151,182.579Zm0,8.615a2.831,2.831,0,1,1-2.832,2.832A2.831,2.831,0,0,1,224.151,191.194Zm-8.4-8.615a2.832,2.832,0,1,1-2.831,2.831A2.832,2.832,0,0,1,215.746,182.579Zm0,8.615a2.831,2.831,0,1,1-2.831,2.832A2.832,2.832,0,0,1,215.746,191.194ZM208.76,203.56V215.4a2.7,2.7,0,0,1-2.7,2.7H163.544a2.7,2.7,0,0,1-2.705-2.7V182.906a2.7,2.7,0,0,1,2.705-2.7h42.512a2.7,2.7,0,0,1,2.7,2.7V203.56ZM224.573,218.1h-9.519a2.169,2.169,0,1,1,0-4.338h9.519a2.169,2.169,0,1,1,0,4.338Zm.21-6.145h-9.519a2.169,2.169,0,1,1,0-4.338h9.519a2.169,2.169,0,0,1,0,4.338Zm.211-6.145h-9.519a2.169,2.169,0,1,1,0-4.338h9.519a2.169,2.169,0,0,1,0,4.338Z"/><path class="d" d="M183.944,207.7l.844-4.133h-1.1Z"/><path class="d" d="M169.954,195.152a.608.608,0,0,1,1.177.1l1.15,7.066,1.973,0,1.7-7.111a.618.618,0,0,1,.6-.467.608.608,0,0,1,.586.484l1.472,7.1h.584l2.4-13.213a.608.608,0,0,1,1.206.071l.807,13.145h1.429l1.114-5.458a.608.608,0,0,1,1.2.05l.635,5.411h.641l2.535-13.181a.608.608,0,0,1,1.2.076l.832,13.109H194.4l.738-3.789a.608.608,0,0,1,1.186-.036l.99,3.827h.745l.554-2.2a.608.608,0,0,1,1.14-.11l1.086,2.31,7.923.007V182.906a2.7,2.7,0,0,0-2.7-2.7H163.544a2.7,2.7,0,0,0-2.705,2.7v19.4l6.7.006Z"/><path class="d" d="M178.924,203.82l.045-.25h-.1Z"/><path class="d" d="M173.08,207.227l.874-3.657h-1.469Z"/><path class="d" d="M197.689,203.793l.056-.223h-.114Z"/><path class="d" d="M188.234,204.4l.159-.827h-.256Z"/><path class="d" d="M193.5,206.958l.66-3.388h-.875Z"/><path class="d" d="M170.324,197.861l-1.5,4.45,2.227,0Z"/><path class="d" d="M181.9,194.261l-1.466,8.06,1.961,0Z"/><path class="d" d="M186.59,200.823l-.307,1.5h.483Z"/><path class="d" d="M207.432,203.57H199l-.714,2.83a.608.608,0,0,1-.587.459h0a.607.607,0,0,1-.589-.456l-.733-2.833H195.4l-1.61,8.264a.608.608,0,0,1-1.2-.077l-.519-8.187h-2.432l-.946,4.919a.6.6,0,0,1-.62.493.609.609,0,0,1-.582-.537l-.572-4.875h-.883l-1.814,8.887a.608.608,0,0,1-.6.487h-.043a.61.61,0,0,1-.565-.57l-.54-8.8h-2.266l-.644,3.542a.61.61,0,0,1-.591.5h-.008a.607.607,0,0,1-.6-.485l-.738-3.557H175.2l-1.646,6.889a.618.618,0,0,1-.614.467.609.609,0,0,1-.578-.51l-1.114-6.846H160.838V215.4a2.7,2.7,0,0,0,2.705,2.7h42.513a2.7,2.7,0,0,0,2.7-2.7V203.561h-1.318Z"/><path class="d" d="M195.817,201.412l-.18.921h.418Z"/><path class="d" d="M191.46,194.065l-1.589,8.263,2.114,0Z"/><path class="d" d="M199.374,202.085l-.063.251h.181Z"/><path class="d" d="M176.5,198.138l-1,4.178,1.865,0Z"/><path class="e" d="M208.742,202.313l-47.9-.008v1.265h47.909Z"/><line class="f" x2="6.692" y2="0.024" transform="translate(160.839 202.305)"/><path class="e" d="M200.84,202.344h7.92l-7.923-.007Z"/><path class="g" d="M200.837,202.312h0l-1.086-2.284a.608.608,0,0,0-1.14.11l-.554,2.2-.312,1.235-.056.223-.057-.223-.32-1.235-.99-3.828a.609.609,0,0,0-1.186.036l-.738,3.789-.241,1.238-.659,3.388-.216-3.388-.078-1.239-.832-13.108a.608.608,0,0,0-1.2-.077l-2.535,13.181-.239,1.243-.159.827-.1-.827-.146-1.243-.635-5.41a.608.608,0,0,0-1.2-.051l-1.114,5.458-.255,1.246-.843,4.133-.254-4.133-.077-1.247-.807-13.145a.609.609,0,0,0-1.206-.071l-2.4,13.213-.228,1.25-.045.25-.052-.25-.259-1.251-1.472-7.1a.609.609,0,0,0-.587-.485.618.618,0,0,0-.6.467l-1.7,7.111-.3,1.254-.874,3.657-.6-3.657-.2-1.256-1.15-7.065a.608.608,0,0,0-1.176-.1l-2.416,7.158-6.7-.005v1.265h7.09a.681.681,0,0,0,.615-.438l.277-.821,1.5-4.45.725,4.452.2,1.257,1.114,6.845a.608.608,0,0,0,.578.51.615.615,0,0,0,.614-.466l1.647-6.889.3-1.253,1-4.179.867,4.18.26,1.252.737,3.557a.609.609,0,0,0,.6.485h.007a.609.609,0,0,0,.591-.5l.645-3.542.227-1.249,1.466-8.06.5,8.061.077,1.248.541,8.8a.607.607,0,0,0,.565.569l.043,0a.608.608,0,0,0,.6-.487l1.815-8.887.254-1.245.306-1.5.177,1.5.146,1.244.572,4.875a.609.609,0,0,0,1.2.044l.946-4.919.239-1.242,1.589-8.263.525,8.265.078,1.24.52,8.187a.608.608,0,0,0,1.2.077l1.609-8.264.241-1.237.179-.921.239.922.319,1.236.733,2.833a.609.609,0,0,0,.589.456h0a.609.609,0,0,0,.588-.459l.713-2.83.311-1.234.063-.251.118.251.412.875a.607.607,0,0,0,.55.349h8.306V202.3Z"/><circle class="d" cx="2.831" cy="2.831" r="2.831" transform="translate(212.915 182.579)"/><circle class="d" cx="2.831" cy="2.831" r="2.831" transform="translate(221.319 182.579)"/><circle class="d" cx="2.831" cy="2.831" r="2.831" transform="translate(212.915 191.194)"/><circle class="d" cx="2.831" cy="2.831" r="2.831" transform="translate(221.319 191.194)"/><path class="g" d="M224.994,201.474h-9.519a2.169,2.169,0,1,0,0,4.338h9.519a2.169,2.169,0,0,0,0-4.338Z"/><path class="g" d="M224.783,207.619h-9.519a2.169,2.169,0,1,0,0,4.338h9.519a2.169,2.169,0,0,0,0-4.338Z"/><path class="g" d="M224.573,213.764h-9.519a2.169,2.169,0,1,0,0,4.338h9.519a2.169,2.169,0,1,0,0-4.338Z"/></g></svg>