<svg xmlns="http://www.w3.org/2000/svg" width="82.392" height="64" viewBox="0 0 82.392 64"><defs><style>.a{fill:#ffd039;}.b{fill:#f67373;}.c{fill:#e4e0e0;}.d{fill:#ff9522;}</style></defs><g transform="translate(-214.804 -280.937)"><path class="a" d="M241.9,285.578a15.862,15.862,0,1,0,0,22.443A15.888,15.888,0,0,0,241.9,285.578Z"/><path class="b" d="M277.364,325.139l15.347-15.327a15.287,15.287,0,0,0-10.793-26.1h-.01a15.188,15.188,0,0,0-10.8,4.47l-15.347,15.327-.013.015Z"/><path class="c" d="M255.745,303.52l.013-.015L240.41,318.832A15.288,15.288,0,0,0,251.2,344.937h.01a15.192,15.192,0,0,0,10.8-4.47l15.347-15.327h0Z"/><path class="d" d="M241.9,285.578c-.288-.288-.586-.557-.89-.818l-22.375,22.376q.392.456.821.885c.288.288.586.557.89.818l22.371-22.372C242.452,286.164,242.183,285.866,241.9,285.578Z"/></g></svg>