<svg xmlns="http://www.w3.org/2000/svg" width="79.722" height="64" viewBox="0 0 79.722 64"><defs><style>.a{fill:#474f70;}.b{fill:#e6af78;}.c{fill:#d5dced;}.d{fill:#f0c087;}.e{fill:#afb9d2;}.f{fill:#959cb5;}.g{fill:#c7cfe2;}.h{fill:#5a6281;}.i{fill:#f67373;}</style></defs><g transform="translate(25.437 16)"><g transform="translate(-238.544 -240)"><ellipse class="a" cx="5.447" cy="4.766" rx="5.447" ry="4.766" transform="translate(275.128 243.064)"/><path class="a" d="M285.276,247.83a4.815,4.815,0,0,1,3.4-4.413,6.1,6.1,0,0,0-2.043-.353c-3.008,0-5.447,2.134-5.447,4.766s2.439,4.766,5.447,4.766a6.1,6.1,0,0,0,2.043-.354A4.812,4.812,0,0,1,285.276,247.83Z" transform="translate(-6.064)"/><path class="b" d="M296.635,274.937l-4.406-2.2a2.723,2.723,0,0,1-1.506-2.436v-4.085h-8.17V270.3a2.723,2.723,0,0,1-1.505,2.436l-4.407,2.2a4.085,4.085,0,0,0-2.258,3.654v8.047A1.362,1.362,0,0,0,275.745,288h21.787a1.361,1.361,0,0,0,1.361-1.362v-8.047A4.085,4.085,0,0,0,296.635,274.937Z" transform="translate(-6.064)"/><path class="c" d="M296.635,274.937l-3.139-1.569a8.16,8.16,0,0,1-13.716,0l-3.139,1.57a4.085,4.085,0,0,0-2.258,3.654v8.047A1.362,1.362,0,0,0,275.745,288h21.787a1.361,1.361,0,0,0,1.361-1.362v-8.047A4.085,4.085,0,0,0,296.635,274.937Z" transform="translate(-6.064)"/><circle class="a" cx="9.532" cy="9.532" r="9.532" transform="translate(271.043 247.148)"/><path class="a" d="M296.081,255.359a9.555,9.555,0,0,0-7.327-7.977,9.814,9.814,0,0,0-2.056-.233c-4.567-.028-6.092,6.277-1.986,8.277a3.453,3.453,0,0,0,.36.156l4.744,8.588s1.264.086,2.538.126A9.513,9.513,0,0,0,296.081,255.359Z" transform="translate(-6.064)"/><path class="d" d="M286.638,268.936h0a8.171,8.171,0,0,1-8.1-7.113,1.373,1.373,0,0,1,.728-1.415,11.385,11.385,0,0,0,2.41-1.628,7.884,7.884,0,0,0,1.863-2.451,1.348,1.348,0,0,1,1.535-.747,23.462,23.462,0,0,1,9.243,4.736,1.316,1.316,0,0,1,.468,1.1A8.17,8.17,0,0,1,286.638,268.936Z" transform="translate(-6.064)"/><path class="a" d="M217.192,252.6v.955a10.9,10.9,0,0,0,.559,3.445l2.164,6.493H224V248.511h-2.723A4.085,4.085,0,0,0,217.192,252.6Z"/><path class="a" d="M235.836,255.424l-2.3,8.065-10.893-9.531a2.724,2.724,0,0,1-2.724-2.724h0A4.085,4.085,0,0,1,224,247.149h9.532a2.724,2.724,0,0,1,2.724,2.723v2.56A10.892,10.892,0,0,1,235.836,255.424Z"/><rect class="b" width="8.17" height="6.027" transform="translate(222.639 267.575)"/><path class="c" d="M237.378,272.755l-6.57-1.877-4.084,2.711-4.085-2.711-6.57,1.877a4.085,4.085,0,0,0-2.962,3.928v9.955A1.361,1.361,0,0,0,214.468,288h24.511a1.362,1.362,0,0,0,1.362-1.362v-9.955A4.086,4.086,0,0,0,237.378,272.755Z"/><path class="e" d="M228.085,288h-2.723l.681-14.4H227.4Z"/><path class="d" d="M226.724,268.936h0a8.17,8.17,0,0,1-8.171-8.17v-1.6a2.722,2.722,0,0,1,.8-1.926l2.469-2.469a2.693,2.693,0,0,1,1.977-.8c4.353.138,8.206,1.07,10.312,3.127a2.688,2.688,0,0,1,.785,1.929v1.735A8.17,8.17,0,0,1,226.724,268.936Z"/><path class="f" d="M227.4,276.325h-1.361a.681.681,0,0,1-.681-.681V273.6h2.723v2.043A.681.681,0,0,1,227.4,276.325Z"/><g transform="translate(221.133 269.797)"><path class="g" d="M226.724,273.589l-2.308,1.763a.818.818,0,0,1-1.213-.257l-2.07-3.781.833-1.271a.545.545,0,0,1,.826-.1Z" transform="translate(-221.133 -269.797)"/><path class="g" d="M226.724,273.589l2.308,1.763a.817.817,0,0,0,1.212-.257l2.071-3.781-.834-1.271a.545.545,0,0,0-.826-.1Z" transform="translate(-221.133 -269.797)"/></g><path class="h" d="M256.681,271.659c8.909,0,16.907-3.642,19.526-4.97a1.357,1.357,0,0,0,.73-1.44c-.423-2.525-1.56-10.088-2.554-23.547-.808-10.948-7.926-17.7-17.7-17.7s-16.894,6.754-17.7,17.7c-.994,13.46-2.131,21.022-2.554,23.547a1.358,1.358,0,0,0,.73,1.44C239.774,268.017,247.772,271.659,256.681,271.659Z" transform="translate(-3.123)"/><path class="a" d="M276.207,266.689a1.357,1.357,0,0,0,.73-1.439c-.423-2.525-1.56-10.088-2.554-23.548-.808-10.948-7.926-17.7-17.7-17.7q-1.027,0-2.015.1c-7.611.758-8.753,11.505-1.438,13.738.116.036.181.052.181.052l2.722,33.757.01.009C265.265,271.807,273.535,268.044,276.207,266.689Z" transform="translate(-3.736)"/><path class="b" d="M233.532,286.638v-7.345a5.446,5.446,0,0,1,3.246-4.982l11.471-5.067a2.721,2.721,0,0,0,1.623-2.491v-5.987h13.617v5.987a2.723,2.723,0,0,0,1.623,2.491l11.471,5.067a5.445,5.445,0,0,1,3.247,4.982v7.345A1.362,1.362,0,0,1,278.468,288H234.894A1.362,1.362,0,0,1,233.532,286.638Z" transform="translate(-3.136)"/><path class="i" d="M276.584,274.311l-8.461-3.737a12.239,12.239,0,0,1-22.884,0l-8.461,3.737a5.446,5.446,0,0,0-3.246,4.982v7.345A1.362,1.362,0,0,0,234.894,288h43.574a1.362,1.362,0,0,0,1.362-1.362v-7.345A5.446,5.446,0,0,0,276.584,274.311Z" transform="translate(-3.136)"/><path class="d" d="M268.925,244.427c-2.187-1.9-7.1-5.265-15.516-6.538a2.723,2.723,0,0,0-2.859,1.456,18.618,18.618,0,0,1-6.35,7.077,2.67,2.67,0,0,0-1.136,2.211v.773c0,7.253,5.473,13.585,12.71,14.054A13.619,13.619,0,0,0,270.3,249.872v-2.389A4.038,4.038,0,0,0,268.925,244.427Z" transform="translate(-3.102)"/></g></g></svg>