<svg xmlns="http://www.w3.org/2000/svg" width="87.148" height="64" viewBox="0 0 87.148 64"><defs><style>.a{fill:#ffe09f;}.b{fill:#f6d190;}.c{fill:#e2a975;}.d{fill:#d19a6e;}.e{fill:#ff8086;}.f{fill:#6cf5c2;}.g{fill:#fff;}.h{fill:#e5646e;}.i{fill:#474f70;}.j{fill:#dad8db;}.k{fill:#dbeaff;}.l{fill:#c3ddff;}</style></defs><g transform="translate(-212.426 -224)"><path class="a" d="M234.213,225.362h8.17V241.7h-8.17Z"/><path class="b" d="M234.213,225.362h8.17v5.447h-8.17Z"/><path class="a" d="M290.043,286.638H221.957v-35.4L256,231.876l34.043,19.358Z"/><path class="c" d="M221.957,273.021h68.086v13.617H221.957Z"/><path class="d" d="M232.851,273.021v2.724a1.361,1.361,0,0,0,1.362,1.361H256a1.361,1.361,0,0,0,1.362-1.361v-2.724Z"/><path class="b" d="M221.957,251.234v6.249l27.287-15.592a13.618,13.618,0,0,1,13.512,0l27.287,15.592v-6.249L256,231.876Z"/><path class="e" d="M254.649,228.857l-35.4,20.231a2.723,2.723,0,0,0-1.373,2.365v3.468a1.021,1.021,0,0,0,1.528.887L256,234.894l36.6,20.914a1.021,1.021,0,0,0,1.528-.887v-3.468a2.723,2.723,0,0,0-1.373-2.365l-35.4-20.231A2.725,2.725,0,0,0,254.649,228.857Z"/><path class="f" d="M238.3,279.83A6.743,6.743,0,0,0,234,281.4a9.529,9.529,0,0,0-17.49,5.24h28.6A6.808,6.808,0,0,0,238.3,279.83Z"/><path class="f" d="M287.319,278.468a8.17,8.17,0,0,0-8.17,8.17h16.34A8.17,8.17,0,0,0,287.319,278.468Z"/><path class="g" d="M256,274.383H234.213a1.362,1.362,0,0,1-1.362-1.362v-16.34a1.362,1.362,0,0,1,1.362-1.362H256a1.362,1.362,0,0,1,1.362,1.362v16.34A1.362,1.362,0,0,1,256,274.383Z"/><path class="e" d="M262.809,256.681v29.957h13.617V256.681a1.362,1.362,0,0,0-1.362-1.362H264.17A1.361,1.361,0,0,0,262.809,256.681Z"/><path class="h" d="M265.532,258.043h8.17v24.51h-8.17Z"/><path class="i" d="M298.213,288H213.787a1.361,1.361,0,0,1,0-2.723h84.426a1.361,1.361,0,0,1,0,2.723Z"/><path class="h" d="M217.872,253.277v1.644a1.021,1.021,0,0,0,1.528.887L256,234.894l36.6,20.914a1.021,1.021,0,0,0,1.528-.887v-1.644l-37.452-21.4a1.359,1.359,0,0,0-1.352,0Z"/><path class="j" d="M265.532,274.383a1.361,1.361,0,1,1,1.362-1.362A1.362,1.362,0,0,1,265.532,274.383Z"/><path class="k" d="M235.574,263.489h19.064v8.171H235.574Z"/><path class="l" d="M235.574,263.489h19.064v2.724H235.574Z"/><path class="l" d="M235.574,258.043h19.064v2.723H235.574Z"/><path class="e" d="M242.383,228.085h-8.17a1.362,1.362,0,0,1-1.362-1.362v-1.361A1.362,1.362,0,0,1,234.213,224h8.17a1.362,1.362,0,0,1,1.362,1.362v1.361A1.362,1.362,0,0,1,242.383,228.085Z"/></g></svg>