<svg xmlns="http://www.w3.org/2000/svg" width="77.833" height="64" viewBox="0 0 77.833 64"><defs><style>.a,.g{fill:#fe636e;}.a,.b,.c,.d,.e,.f{fill-rule:evenodd;}.b,.h{fill:#ececec;}.c{fill:#acacac;}.d{fill:#474f70;}.e{fill:#e6e6e6;}.f{fill:#68e1ea;}</style></defs><g transform="translate(20 16)"><g transform="translate(-237.084 -240)"><path class="a" d="M255.69,235.278h-.347a3.726,3.726,0,0,0-3.716,3.715v3.715l3.889,2.566,3.89-2.566v-3.715a3.723,3.723,0,0,0-3.716-3.715Z"/><path class="b" d="M251.627,242.708H222.884a2.816,2.816,0,0,0-2.793,2.814V273.7l17.81,2.348,17.616-2.348V242.708Z"/><path class="b" d="M273.584,245.975c-2.428-2.552-3.121-3.267-5.417-3.267H255.516l-2.584,16.237,2.584,14.754,20.866,2.57,15.506-2.57h.089v-6.277l-.005-4.514c-.062-2.024-.936-4.554-4.2-5.024-3.29-.475-4.529-.755-5.99-2.49Z"/><path class="c" d="M225.584,273.7h-5.822a2.676,2.676,0,1,0,0,5.353h11.5a8.369,8.369,0,0,1,2.4-5.353Z"/><path class="c" d="M291.888,273.7H281.147a8.279,8.279,0,0,1,1.5,2.081,8.605,8.605,0,0,1,.4.9,8.482,8.482,0,0,1,.5,2.375h8.694a2.676,2.676,0,1,0,0-5.353Z"/><path class="c" d="M254.633,273.7H240.961a8.535,8.535,0,0,1,1.5,2.081,9.25,9.25,0,0,1,.391.9,8.412,8.412,0,0,1,.5,2.375h28.1a8.385,8.385,0,0,1,2.394-5.353H254.633Z"/><path class="d" d="M276.715,271.182a8.409,8.409,0,1,1-8.41,8.411A8.409,8.409,0,0,1,276.715,271.182Z"/><path class="e" d="M273.376,279.593a3.339,3.339,0,1,0,3.339-3.342A3.338,3.338,0,0,0,273.376,279.593Z"/><path class="c" d="M287.212,262.908a1.644,1.644,0,0,0-1.643,1.638v1.234a1.644,1.644,0,0,0,1.643,1.642h4.765v-4.19c0-.106,0-.213-.005-.324Z"/><path class="f" d="M269.14,249.4a2.783,2.783,0,0,0-2.491-1.238h-4.134a.492.492,0,0,0-.533.391l.013,7a2.008,2.008,0,0,0,2.167,1.833h10.027a.43.43,0,0,0,.452-.368v-.5c0-.662-.341-.7-1.309-1.909Z"/><path class="a" d="M239.931,251.257h-4.254a.777.777,0,0,0-.773.777V255.3h-3.273a.777.777,0,0,0-.772.777v4.252a.773.773,0,0,0,.772.773H234.9v3.271a.774.774,0,0,0,.773.773h4.254a.778.778,0,0,0,.777-.773V261.1h3.268a.777.777,0,0,0,.777-.773v-4.252a.781.781,0,0,0-.777-.777h-3.268v-3.266a.781.781,0,0,0-.777-.777Z"/><path class="d" d="M230.526,273.7a8.37,8.37,0,0,0-2.394,5.353c-.013.177-.017.359-.017.541a8.412,8.412,0,0,0,16.824,0c0-.182-.008-.364-.017-.541a8.412,8.412,0,0,0-14.4-5.353Z"/><path class="e" d="M233.185,279.593a3.34,3.34,0,1,0,3.34-3.342A3.341,3.341,0,0,0,233.185,279.593Z"/><path class="b" d="M255.516,242.708h-3.889V273.7h3.889Z"/><path class="g" d="M255.92,230.669a1.184,1.184,0,0,1-1.184-1.184v-4.3a1.185,1.185,0,0,1,2.369,0v4.3A1.185,1.185,0,0,1,255.92,230.669Z"/><path class="g" d="M248.5,232.192a1.181,1.181,0,0,1-.837-.347l-3.046-3.045a1.184,1.184,0,1,1,1.674-1.675l3.046,3.045a1.185,1.185,0,0,1-.837,2.022Z"/><path class="g" d="M263.349,232.192a1.185,1.185,0,0,1-.837-2.022l3.046-3.045a1.184,1.184,0,1,1,1.674,1.675l-3.046,3.045A1.181,1.181,0,0,1,263.349,232.192Z"/><path class="h" d="M264.983,263.693h-2.992a1.184,1.184,0,1,1,0-2.368h2.992a1.184,1.184,0,1,1,0,2.368Z"/></g></g></svg>