<svg xmlns="http://www.w3.org/2000/svg" width="78.656" height="64" viewBox="0 0 78.656 64"><defs><style>.a{fill:#ffbc99;}.b{fill:#f67373;}.c{fill:#cf2736;}.d{fill:#474f70;}</style></defs><g transform="translate(-216.672 -224)"><path class="a" d="M294.188,225.139a3.888,3.888,0,0,1,0,5.5l-17.347,16.736-4.8,1.728-4.8-1.728,21.451-22.237A3.89,3.89,0,0,1,294.188,225.139Z"/><path class="b" d="M216.672,247.375a39.327,39.327,0,1,0,78.655,0Z"/><path class="c" d="M267.668,288H244.331a1.3,1.3,0,1,1,0-2.593h23.337a1.3,1.3,0,1,1,0,2.593Z"/><circle class="c" cx="1.297" cy="1.297" r="1.297" transform="translate(235.216 270.583)"/><circle class="c" cx="1.297" cy="1.297" r="1.297" transform="translate(230.03 265.397)"/><path class="d" d="M258.765,243.486a1.3,1.3,0,0,1-1.3-1.3,6.052,6.052,0,0,1,.844-3.2,3.917,3.917,0,0,0,0-3.966,6.5,6.5,0,0,1,0-6.406,3.531,3.531,0,0,0,.539-1.983,1.3,1.3,0,1,1,2.593,0,6.049,6.049,0,0,1-.844,3.2,3.917,3.917,0,0,0,0,3.966,6.5,6.5,0,0,1,0,6.407,3.525,3.525,0,0,0-.539,1.982A1.3,1.3,0,0,1,258.765,243.486Z"/><path class="d" d="M251.851,243.486a1.3,1.3,0,0,1-1.3-1.3,6.052,6.052,0,0,1,.844-3.2,3.917,3.917,0,0,0,0-3.966,6.5,6.5,0,0,1,0-6.406,3.531,3.531,0,0,0,.539-1.983,1.3,1.3,0,1,1,2.593,0,6.049,6.049,0,0,1-.844,3.2,3.917,3.917,0,0,0,0,3.966,6.5,6.5,0,0,1,0,6.407,3.525,3.525,0,0,0-.539,1.982A1.3,1.3,0,0,1,251.851,243.486Z"/></g></svg>