<svg xmlns="http://www.w3.org/2000/svg" width="73.47" height="64" viewBox="0 0 73.47 64"><defs><style>.a{fill:#efedef;}.b{fill:#6cf5c2;}.c{fill:#9cf8d2;}.d{fill:#f9f7f8;}.e{fill:#05e39c;}.f{fill:#00f2a6;}</style></defs><g transform="translate(-219.265 -224.001)"><path class="a" d="M287.1,224a5.638,5.638,0,0,0-5.632,5.631v18.74a1.078,1.078,0,0,0,2.156,0v-18.74a3.475,3.475,0,0,1,6.95-.027l-1.25,23.579a1.079,1.079,0,0,0,1.02,1.134h.058a1.079,1.079,0,0,0,1.076-1.021l1.251-23.609c0-.019,0-.038,0-.057A5.637,5.637,0,0,0,287.1,224Z"/><path class="a" d="M224.9,224.288a5.638,5.638,0,0,0-5.632,5.632c0,.02,0,.041,0,.061l1.361,23.763a1.079,1.079,0,0,0,1.076,1.017l.063,0a1.078,1.078,0,0,0,1.014-1.138l-1.359-23.73a3.475,3.475,0,0,1,6.95.029v18.452a1.078,1.078,0,0,0,2.156,0V229.92A5.638,5.638,0,0,0,224.9,224.288Z"/><path class="b" d="M256,283.739a1.079,1.079,0,0,1-1.078-1.079V239.549a1.078,1.078,0,0,1,2.156,0V282.66A1.078,1.078,0,0,1,256,283.739Z"/><path class="c" d="M286.636,245.585l-17.868-9.15a28,28,0,0,0-9.892-2.927v1.32h-5.751v-1.143l-3.433,1.563L224.114,247.7l-.1-.588-2.508,6.131,15.884,26.688,14.379,6.947c3.121.445,13.209-.669,13.376-.605s7.134-3.576,7.134-3.576h.549a29.272,29.272,0,0,0,8.244-8.822l9.256-15.31a9.222,9.222,0,0,0-3.69-12.978Z"/><path class="b" d="M274.307,281.5a29.22,29.22,0,0,1-12.356,3.748,29.226,29.226,0,0,1-12.283-3.706l-.069-.039a29.264,29.264,0,0,1-10.652-10.341l-9.231-15.272-.041-.068a6.141,6.141,0,0,1,2.918-8.77L250.2,239.6a27.975,27.975,0,0,1,7.728-2.618v-2.159h-4.8v-1.32a27.983,27.983,0,0,0-9.893,2.928l-16.775,8.589-1.093.56a9.222,9.222,0,0,0-3.689,12.978l9.231,15.272a29.28,29.28,0,0,0,10.652,10.341l.069.039a29.227,29.227,0,0,0,11.5,3.64v-.677h5.751v.682a29.274,29.274,0,0,0,15.811-6.583c-.126.074-.253.148-.38.22Z"/><path class="d" d="M243.259,263.413h-10.93a3.1,3.1,0,0,1-3.1-3.1v-8.833a3.1,3.1,0,0,1,3.1-3.1h10.929a7.521,7.521,0,1,1,0,15.041Z"/><circle class="a" cx="3.208" cy="3.208" r="3.208" transform="translate(239.966 252.685)"/><path class="e" d="M258.876,233.652v7.991a1.788,1.788,0,0,1-1.788,1.788h-2.176a1.787,1.787,0,0,1-1.787-1.788V233.5a28.057,28.057,0,0,1,5.751,0Z"/><circle class="d" cx="2.243" cy="2.243" r="2.243" transform="translate(282.55 250.998)"/><path class="f" d="M257.088,279.929h-2.176a1.786,1.786,0,0,0-1.787,1.787v6.141c.963.1,1.931.143,2.9.143q1.428,0,2.853-.139v-6.145A1.787,1.787,0,0,0,257.088,279.929Z"/><path class="c" d="M220.843,256.788l-.488-2.58A9.114,9.114,0,0,0,220.843,256.788Z"/><path class="e" d="M253.125,283.2v4.656c.963.1,1.931.144,2.9.144q1.428,0,2.853-.14v-3a29.287,29.287,0,0,1-5.751-1.657Z"/></g></svg>